<svg xmlns="http://www.w3.org/2000/svg" viewBox="0 0 910 376" width="910" height="376" font-family="Helvetica, Arial, sans-serif">
<rect width="100%" height="100%" fill="#f8fafc"/>
<text x="20" y="34" font-size="22" font-weight="700" fill="#0f172a">WF4 - Sales Agent Reply Check</text>
<path d="M200,118.0 C240,118.0 120,118.0 160,118.0" fill="none" stroke="#94a3b8" stroke-width="2.5"/>
<circle cx="160" cy="118.0" r="4" fill="#94a3b8"/>
<path d="M310,118.0 C350,118.0 230,118.0 270,118.0" fill="none" stroke="#94a3b8" stroke-width="2.5"/>
<circle cx="270" cy="118.0" r="4" fill="#94a3b8"/>
<path d="M420,118.0 C460,118.0 450,118.0 490,118.0" fill="none" stroke="#94a3b8" stroke-width="2.5"/>
<circle cx="490" cy="118.0" r="4" fill="#94a3b8"/>
<path d="M640,118.0 C680,118.0 670,118.0 710,118.0" fill="none" stroke="#94a3b8" stroke-width="2.5"/>
<circle cx="710" cy="118.0" r="4" fill="#94a3b8"/>
<path d="M565.0,270 C565.0,220 565.0,196 565.0,146" fill="none" stroke="#7c5cdb" stroke-width="2" stroke-dasharray="6 4"/>
<rect x="50" y="90" width="150" height="56" rx="10" fill="#fff" stroke="#1e9e6a" stroke-width="2.5"/>
<rect x="50" y="90" width="8" height="56" rx="4" fill="#1e9e6a"/>
<text x="68" y="114" font-size="13" font-weight="600" fill="#0f172a">Check For Replies</text>
<text x="68" y="132" font-size="11" fill="#64748b">gmailTrigger</text>
<rect x="160" y="90" width="150" height="56" rx="10" fill="#fff" stroke="#64748b" stroke-width="2.5"/>
<rect x="160" y="90" width="8" height="56" rx="4" fill="#64748b"/>
<text x="178" y="114" font-size="13" font-weight="600" fill="#0f172a">Extract Sender Email</text>
<text x="178" y="132" font-size="11" fill="#64748b">set</text>
<rect x="270" y="90" width="150" height="56" rx="10" fill="#fff" stroke="#2d7ff9" stroke-width="2.5"/>
<rect x="270" y="90" width="8" height="56" rx="4" fill="#2d7ff9"/>
<text x="288" y="114" font-size="13" font-weight="600" fill="#0f172a">Find Matching Lead</text>
<text x="288" y="132" font-size="11" fill="#64748b">airtable</text>
<rect x="490" y="90" width="150" height="56" rx="10" fill="#fff" stroke="#7c5cdb" stroke-width="2.5"/>
<rect x="490" y="90" width="8" height="56" rx="4" fill="#7c5cdb"/>
<text x="508" y="114" font-size="13" font-weight="600" fill="#0f172a">Classify Reply</text>
<text x="508" y="132" font-size="11" fill="#64748b">agent</text>
<rect x="490" y="270" width="150" height="56" rx="10" fill="#fff" stroke="#7c5cdb" stroke-width="2.5"/>
<rect x="490" y="270" width="8" height="56" rx="4" fill="#7c5cdb"/>
<text x="508" y="294" font-size="13" font-weight="600" fill="#0f172a">OpenAI Model</text>
<text x="508" y="312" font-size="11" fill="#64748b">lmChatOpenAi</text>
<rect x="710" y="90" width="150" height="56" rx="10" fill="#fff" stroke="#2d7ff9" stroke-width="2.5"/>
<rect x="710" y="90" width="8" height="56" rx="4" fill="#2d7ff9"/>
<text x="728" y="114" font-size="13" font-weight="600" fill="#0f172a">Update Lead Status</text>
<text x="728" y="132" font-size="11" fill="#64748b">airtable</text>
</svg>